<?xml version="1.0" encoding="UTF-8"?>
<svg xmlns="http://www.w3.org/2000/svg" xmlns:xlink="http://www.w3.org/1999/xlink" width="256pt" height="74pt" viewBox="0 0 256 74" version="1.1">
<defs>
<linearGradient id="linear0" gradientUnits="userSpaceOnUse" x1="496.83" y1="37.3552" x2="460.33" y2="135.3552" gradientTransform="matrix(0.499805,0,0,0.499805,0,0.0894182)">
<stop offset="0.0650363" style="stop-color:rgb(13.72549%,67.45098%,97.647059%);stop-opacity:1;"/>
<stop offset="0.9547" style="stop-color:rgb(0.392157%,95.294118%,98.431373%);stop-opacity:1;"/>
</linearGradient>
<linearGradient id="linear1" gradientUnits="userSpaceOnUse" x1="85.0993" y1="38.6092" x2="51.5993" y2="143.6092" gradientTransform="matrix(0.499805,0,0,0.499805,0,0.0894182)">
<stop offset="0.0650363" style="stop-color:rgb(13.72549%,67.45098%,97.647059%);stop-opacity:1;"/>
<stop offset="0.9547" style="stop-color:rgb(0.392157%,95.294118%,98.431373%);stop-opacity:1;"/>
</linearGradient>
<linearGradient id="linear2" gradientUnits="userSpaceOnUse" x1="111.3482" y1="46.9839" x2="77.8482" y2="151.9839" gradientTransform="matrix(0.499805,0,0,0.499805,0,0.0894182)">
<stop offset="0.0650363" style="stop-color:rgb(13.72549%,67.45098%,97.647059%);stop-opacity:1;"/>
<stop offset="0.9547" style="stop-color:rgb(0.392157%,95.294118%,98.431373%);stop-opacity:1;"/>
</linearGradient>
</defs>
<g id="surface1">
<path style=" stroke:none;fill-rule:nonzero;fill:rgb(22.745098%,22.745098%,22.745098%);fill-opacity:1;" d="M 122.652344 53.96875 L 122.652344 27.679688 L 110.957031 53.96875 L 106.609375 53.96875 L 94.964844 27.679688 L 94.964844 53.96875 L 90.265625 53.96875 L 90.265625 20.179688 L 96.710938 20.179688 L 108.808594 47.671875 L 121.003906 20.179688 L 127.351562 20.179688 L 127.351562 53.96875 Z M 122.652344 53.96875 "/>
<path style=" stroke:none;fill-rule:nonzero;fill:rgb(22.745098%,22.745098%,22.745098%);fill-opacity:1;" d="M 154.691406 42.324219 C 154.691406 49.421875 149.742188 54.667969 142.792969 54.667969 C 135.796875 54.667969 130.898438 49.421875 130.898438 42.324219 C 130.898438 35.277344 135.847656 30.027344 142.792969 30.027344 C 149.742188 29.976562 154.691406 35.277344 154.691406 42.324219 Z M 150.042969 42.324219 C 150.042969 36.976562 146.644531 34.074219 142.792969 34.074219 C 138.945312 34.074219 135.546875 36.976562 135.546875 42.324219 C 135.546875 47.722656 138.945312 50.621094 142.792969 50.621094 C 146.644531 50.621094 150.042969 47.722656 150.042969 42.324219 Z M 150.042969 42.324219 "/>
<path style=" stroke:none;fill-rule:nonzero;fill:rgb(22.745098%,22.745098%,22.745098%);fill-opacity:1;" d="M 161.386719 42.324219 C 161.386719 47.621094 164.734375 50.46875 168.484375 50.46875 C 172.832031 50.46875 174.433594 47.519531 174.980469 45.671875 L 178.980469 47.421875 C 177.878906 50.769531 174.53125 54.667969 168.484375 54.667969 C 161.6875 54.667969 156.738281 49.371094 156.738281 42.324219 C 156.738281 35.074219 161.835938 30.027344 168.433594 30.027344 C 174.632812 30.027344 177.832031 33.875 178.78125 37.425781 L 174.683594 39.175781 C 174.082031 36.925781 172.382812 34.226562 168.433594 34.226562 C 164.785156 34.175781 161.386719 36.925781 161.386719 42.324219 Z M 161.386719 42.324219 "/>
<path style=" stroke:none;fill-rule:nonzero;fill:rgb(22.745098%,22.745098%,22.745098%);fill-opacity:1;" d="M 187.777344 40.671875 L 194.074219 39.773438 C 195.472656 39.574219 195.875 38.875 195.875 38.023438 C 195.875 35.777344 194.375 33.875 190.824219 33.875 C 187.625 33.875 185.828125 35.875 185.527344 38.574219 L 181.179688 37.574219 C 181.679688 33.125 185.675781 30.027344 190.726562 30.027344 C 197.722656 30.027344 200.421875 33.976562 200.421875 38.523438 L 200.421875 50.167969 C 200.421875 52.21875 200.621094 53.417969 200.722656 53.96875 L 196.273438 53.96875 C 196.171875 53.367188 196.023438 52.519531 196.023438 50.820312 C 195.023438 52.46875 192.675781 54.667969 188.527344 54.667969 C 183.777344 54.667969 180.730469 51.371094 180.730469 47.722656 C 180.730469 43.574219 183.777344 41.273438 187.777344 40.671875 Z M 195.875 44.023438 L 195.875 42.972656 L 188.777344 44.023438 C 186.828125 44.320312 185.378906 45.421875 185.378906 47.519531 C 185.378906 49.269531 186.828125 50.917969 189.175781 50.917969 C 192.875 50.871094 195.875 49.070312 195.875 44.023438 Z M 195.875 44.023438 "/>
<path style=" stroke:none;fill-rule:nonzero;fill:rgb(22.745098%,22.745098%,22.745098%);fill-opacity:1;" d="M 204.769531 63.113281 L 204.769531 30.726562 L 209.167969 30.726562 L 209.167969 34.324219 C 210.417969 32.027344 213.167969 30.175781 216.964844 30.175781 C 223.960938 30.175781 227.660156 35.527344 227.660156 42.324219 C 227.660156 49.21875 223.664062 54.566406 216.816406 54.566406 C 213.214844 54.566406 210.519531 52.867188 209.269531 50.820312 L 209.269531 63.113281 Z M 216.164062 34.175781 C 212.015625 34.175781 209.21875 37.675781 209.21875 42.273438 C 209.21875 47.070312 211.96875 50.46875 216.164062 50.46875 C 220.363281 50.46875 223.0625 47.019531 223.0625 42.273438 C 223.0625 37.675781 220.414062 34.175781 216.164062 34.175781 Z M 216.164062 34.175781 "/>
<path style=" stroke:none;fill-rule:nonzero;fill:url(#linear0);" d="M 244.304688 37.023438 L 255.851562 53.917969 L 250.203125 53.917969 L 241.554688 40.722656 L 232.710938 53.917969 L 227.160156 53.917969 L 238.855469 37.023438 L 227.210938 20.179688 L 232.910156 20.179688 L 241.554688 33.425781 L 250.351562 20.179688 L 255.949219 20.179688 Z M 244.304688 37.023438 "/>
<path style=" stroke:none;fill-rule:nonzero;fill:url(#linear1);" d="M 36.9375 0.0898438 C 16.542969 0.0898438 0 16.632812 0 37.023438 C 0 57.417969 16.542969 73.960938 36.9375 73.960938 C 57.328125 73.960938 73.871094 57.417969 73.871094 37.023438 C 73.871094 16.632812 57.277344 0.0898438 36.9375 0.0898438 Z M 32.835938 65.113281 C 32.835938 62.863281 34.6875 61.015625 36.9375 61.015625 C 39.183594 61.015625 41.035156 62.863281 41.035156 65.113281 C 41.035156 67.363281 39.183594 69.210938 36.9375 69.210938 C 34.6875 69.210938 32.835938 67.363281 32.835938 65.113281 Z M 45.183594 68.113281 C 45.53125 67.164062 45.730469 66.164062 45.730469 65.113281 C 45.730469 60.265625 41.785156 56.316406 36.9375 56.316406 C 32.085938 56.316406 28.140625 60.265625 28.140625 65.113281 C 28.140625 66.164062 28.339844 67.164062 28.6875 68.113281 C 14.945312 64.464844 4.75 51.917969 4.75 37.023438 C 4.75 19.28125 19.191406 4.835938 36.9375 4.835938 C 50.679688 4.835938 62.425781 13.484375 67.023438 25.628906 C 63.273438 22.230469 58.425781 20.179688 53.128906 20.179688 C 45.132812 20.179688 38.183594 24.78125 34.4375 31.675781 C 34.285156 31.976562 34.1875 32.328125 34.1875 32.726562 L 34.1875 48.371094 C 34.1875 49.671875 35.234375 50.71875 36.535156 50.71875 C 37.835938 50.71875 38.886719 49.671875 38.886719 48.371094 L 38.886719 37.425781 C 42.683594 40.972656 47.632812 43.121094 53.078125 43.121094 C 59.425781 43.121094 65.074219 40.171875 69.023438 35.574219 C 69.023438 36.074219 69.074219 36.523438 69.074219 37.023438 C 69.121094 51.917969 58.925781 64.414062 45.183594 68.113281 Z M 66.175781 31.628906 C 62.976562 35.875 58.175781 38.425781 53.078125 38.425781 C 47.980469 38.425781 43.183594 35.875 39.984375 31.628906 C 43.183594 27.378906 47.980469 24.828125 53.078125 24.828125 C 58.175781 24.878906 62.976562 27.429688 66.175781 31.628906 Z M 66.175781 31.628906 "/>
<path style=" stroke:none;fill-rule:nonzero;fill:url(#linear2);" d="M 48.980469 31.628906 C 48.980469 33.875 50.832031 35.726562 53.078125 35.726562 C 55.328125 35.726562 57.175781 33.875 57.175781 31.628906 C 57.175781 29.378906 55.328125 27.527344 53.078125 27.527344 C 50.832031 27.527344 48.980469 29.378906 48.980469 31.628906 Z M 48.980469 31.628906 "/>
</g>
</svg>
